<?xml version="1.0" encoding="utf-8"?>
<!-- Generator: Adobe Illustrator 24.0.2, SVG Export Plug-In . SVG Version: 6.00 Build 0)  -->
<svg version="1.1" id="Capa_1" xmlns="http://www.w3.org/2000/svg" xmlns:xlink="http://www.w3.org/1999/xlink" x="0px" y="0px"
	 viewBox="0 0 512 512" style="enable-background:new 0 0 512 512;" xml:space="preserve">
<style type="text/css">
	.st0{fill:#6D6B6B;}
</style>
<g>
	<path class="st0" d="M446.6,124.4l-120-120C323.8,1.6,320,0,316,0H106C81.2,0,61,20.2,61,45v422c0,24.8,20.2,45,45,45h300
		c24.8,0,45-20.2,45-45V135C451,130.9,449.3,127.1,446.6,124.4z M331,51.2l68.8,68.8H346c-8.3,0-15-6.7-15-15V51.2z M406,482H106
		c-8.3,0-15-6.7-15-15V45c0-8.3,6.7-15,15-15h195v75c0,24.8,20.2,45,45,45h75v317C421,475.3,414.3,482,406,482z"/>
	<path class="st0" d="M346,212H166c-8.3,0-15,6.7-15,15s6.7,15,15,15h180c8.3,0,15-6.7,15-15S354.3,212,346,212z"/>
	<path class="st0" d="M346,272H166c-8.3,0-15,6.7-15,15s6.7,15,15,15h180c8.3,0,15-6.7,15-15S354.3,272,346,272z"/>
	<path class="st0" d="M346,332H166c-8.3,0-15,6.7-15,15s6.7,15,15,15h180c8.3,0,15-6.7,15-15S354.3,332,346,332z"/>
	<path class="st0" d="M286,392H166c-8.3,0-15,6.7-15,15s6.7,15,15,15h120c8.3,0,15-6.7,15-15S294.3,392,286,392z"/>
</g>
</svg>
