<?xml version="1.0" encoding="utf-8"?>
<!-- Generator: Adobe Illustrator 24.0.2, SVG Export Plug-In . SVG Version: 6.00 Build 0)  -->
<svg version="1.1" id="light" xmlns="http://www.w3.org/2000/svg" xmlns:xlink="http://www.w3.org/1999/xlink" x="0px" y="0px"
	 viewBox="0 0 512 512" style="enable-background:new 0 0 512 512;" xml:space="preserve">
<style type="text/css">
	.st0{stroke:#000000;stroke-width:7;stroke-miterlimit:10;}
</style>
<g>
	<path class="st0" d="M407.9,499h-81c-5.6,0-10.1-4.5-10.1-10.1V347.1c0-5.6-4.5-10.1-10.1-10.1H205.4c-5.6,0-10.1,4.5-10.1,10.1
		v141.8c0,5.6-4.5,10.1-10.1,10.1h-81c-16.7,0-30.4-13.6-30.4-30.4V276.3H33.3c-11.2,0-20.3-9.1-20.3-20.3c0-5.4,2.2-10.6,6-14.4
		L248.9,15.9c3.9-3.8,10.2-3.8,14.2,0l229.8,225.6c3.9,3.9,6.1,9.2,6.1,14.5c0,11.2-9.1,20.3-20.3,20.3h-40.5v192.4
		C438.3,485.4,424.6,499,407.9,499z M337,478.8h70.9c5.6,0,10.1-4.5,10.1-10.1V266.1c0-5.6,4.5-10.1,10.1-10.1h50.6L256,37.3
		L33.3,255.9l50.6,0.1c5.6,0,10.1,4.5,10.1,10.1v202.5c0,5.6,4.5,10.1,10.1,10.1H175V347.1c0-16.7,13.6-30.4,30.4-30.4h101.2
		c16.7,0,30.4,13.6,30.4,30.4V478.8z"/>
</g>
</svg>
