<?xml version="1.0" encoding="utf-8"?>
<!-- Generator: Adobe Illustrator 24.0.2, SVG Export Plug-In . SVG Version: 6.00 Build 0)  -->
<svg version="1.1" id="Capa_1" xmlns="http://www.w3.org/2000/svg" xmlns:xlink="http://www.w3.org/1999/xlink" x="0px" y="0px"
	 viewBox="0 0 200 160" style="enable-background:new 0 0 200 160;" xml:space="preserve">
<style type="text/css">
	.st0{fill:#6C6C6C;}
</style>
<g>
	<path class="st0" d="M82.8,1.9c22.5,0,45.1,0,67.6,0c9.6,0,13,3.4,13,13c0,20.9,0,41.9-0.1,62.8c0,3.3,0.6,4.9,4.4,5.7
		c17.7,3.6,29.9,19.7,29.2,37.6c-0.7,17.6-14,32.5-31.2,35c-18,2.6-35.1-7.6-40.6-24.8c-1.4-4.2-3.2-5.1-7.3-5.1
		c-34.1,0.2-68.1,0.1-102.2,0.1c-10.2,0-13.5-3.3-13.5-13.5c0-32.6,0-65.2,0-97.9c0-9.6,3.4-13,13-13C37.7,1.9,60.3,1.9,82.8,1.9z
		 M86.4,77.9c6-6.1,11.3-11.6,16.7-17.1c5-5,8-5,12.8,0.2c6.9,7.5,14,15,20.6,22.8c2.7,3.2,4.8,4.5,8.6,2c2.1-1.4,4.7-2.2,7.2-2.4
		c3.9-0.3,4.5-2.4,4.4-5.7c-0.1-20.8,0-41.6-0.1-62.4c0-6.1-0.6-6.7-6.5-6.7c-45.1,0-90.2,0-135.3,0c-4.3,0-6,1.4-6,5.8
		c0.1,31.3,0,62.7,0.1,94c0,1.3,0.3,2.6,0.5,4.7c1.9-2.3,3.2-3.8,4.4-5.3c13.9-17.4,27.8-34.7,41.6-52.1c5.2-6.5,9-6.5,14.1,0.2
		C75,63.1,80.4,70.1,86.4,77.9z M109.3,119.2C93.6,98.6,78.3,78.6,62.6,58C46.1,78.5,30,98.6,13.5,119.2
		C45.9,119.2,77.1,119.2,109.3,119.2z M190.2,119.5c0-16.9-13.6-30.3-30.7-30.2c-16.1,0.1-29.6,13.6-29.7,29.7
		c-0.1,17,13.3,30.6,30.2,30.7C176.7,149.7,190.3,136.1,190.2,119.5z M90.6,83.5c8.8,11.5,17.4,23,26.3,34.2
		c1.1,1.3,3.6,1.5,6.1,2.4c0.3-11.6,4.7-20.4,11.9-27.9c-8.6-9.4-16.8-18.4-25.2-27.6c-1.1,0.9-1.8,1.4-2.5,2.1
		C101.8,72,96.5,77.5,90.6,83.5z"/>
	<path class="st0" d="M143.3,32.2c0,9.2-7.6,16.8-16.8,16.7c-9.3-0.1-16.8-7.5-16.9-16.7c-0.1-9.1,7.4-16.8,16.6-17
		C135.6,15.1,143.3,22.8,143.3,32.2z M126.2,22.1c-5.5,0.1-9.9,4.7-9.8,10.2c0.1,5.6,4.7,9.9,10.2,9.8c5.6-0.1,9.9-4.7,9.7-10.2
		C136.3,26.3,131.8,22,126.2,22.1z"/>
	<path class="st0" d="M163.5,109.9c0,6.4,0,11.6,0,16.8c0,2.6,0,5.1,0,7.7c0,2.6-0.4,5.4-3.6,4.9c-1.3-0.2-3-3.1-3.1-4.8
		c-0.4-6.2-0.1-12.5-0.1-18.7c0-1.5-0.2-3.1-0.3-5.6c-3.8,2.9-6.9,5.3-10,7.7c-1.9,1.5-4.2,2.7-5.6,0.1c-0.6-1.2,0.2-4.1,1.4-5.1
		c4.8-4.3,9.7-8.3,15-11.9c1.3-0.9,4.4-0.9,5.8,0c5.2,3.6,10.2,7.7,15,11.9c1.2,1,2.1,3.9,1.5,5.1c-1.3,2.7-3.7,1.6-5.6,0.1
		C170.7,115.5,167.6,113.1,163.5,109.9z"/>
</g>
</svg>
